REM DIRINDEX 1\2,1\3
REM DIRNAME cjc140,folder01,folder02
TITLE ""
FILE "Track65.mp3" MP3
  TRACK 01 AUDIO
    TITLE "0:"
    INDEX 01 00:00:00
  TRACK 02 AUDIO
    TITLE "3:cjc140_231"
    INDEX 01 00:00:07
  TRACK 03 AUDIO
    TITLE "2:cjc140_232"
    INDEX 01 00:02:18
  TRACK 04 AUDIO
    TITLE "2:cjc140_233"
    INDEX 01 00:11:07
  TRACK 05 AUDIO
    TITLE "0:"
    INDEX 01 00:24:29
